<mxfile host="65bd71144e">
    <diagram id="gNUZKU47G5ZhGun3ng5r" name="Architecture">
        <mxGraphModel dx="1678" dy="643" grid="1" gridSize="10" guides="1" tooltips="1" connect="1" arrows="1" fold="1" page="1" pageScale="1" pageWidth="850" pageHeight="1100" background="#FFFFFF" math="0" shadow="0">
            <root>
                <mxCell id="0"/>
                <mxCell id="1" parent="0"/>
                <mxCell id="1qiyT1-d7huw2gus4alH-49" style="edgeStyle=orthogonalEdgeStyle;rounded=0;orthogonalLoop=1;jettySize=auto;html=1;exitX=0.5;exitY=1;exitDx=0;exitDy=0;entryX=0.5;entryY=0;entryDx=0;entryDy=0;fontColor=#000000;strokeColor=#000000;" parent="1" source="1qiyT1-d7huw2gus4alH-2" target="1qiyT1-d7huw2gus4alH-3" edge="1">
                    <mxGeometry relative="1" as="geometry"/>
                </mxCell>
                <mxCell id="1qiyT1-d7huw2gus4alH-2" value="React Component" style="rounded=1;whiteSpace=wrap;html=1;" parent="1" vertex="1">
                    <mxGeometry x="80" y="280" width="120" height="40" as="geometry"/>
                </mxCell>
                <mxCell id="1qiyT1-d7huw2gus4alH-50" style="edgeStyle=orthogonalEdgeStyle;rounded=0;orthogonalLoop=1;jettySize=auto;html=1;entryX=0.5;entryY=0;entryDx=0;entryDy=0;fontColor=#000000;strokeColor=#000000;" parent="1" source="1qiyT1-d7huw2gus4alH-3" target="1qiyT1-d7huw2gus4alH-47" edge="1">
                    <mxGeometry relative="1" as="geometry">
                        <Array as="points">
                            <mxPoint x="220" y="380"/>
                        </Array>
                    </mxGeometry>
                </mxCell>
                <mxCell id="1qiyT1-d7huw2gus4alH-3" value="Hooks" style="rounded=1;whiteSpace=wrap;html=1;" parent="1" vertex="1">
                    <mxGeometry x="80" y="360" width="120" height="40" as="geometry"/>
                </mxCell>
                <mxCell id="1qiyT1-d7huw2gus4alH-37" style="edgeStyle=orthogonalEdgeStyle;rounded=0;orthogonalLoop=1;jettySize=auto;html=1;entryX=0.5;entryY=0;entryDx=0;entryDy=0;fontColor=#CC0000;strokeColor=#000000;" parent="1" source="1qiyT1-d7huw2gus4alH-4" target="1qiyT1-d7huw2gus4alH-35" edge="1">
                    <mxGeometry relative="1" as="geometry"/>
                </mxCell>
                <mxCell id="1qiyT1-d7huw2gus4alH-4" value="Action" style="rounded=1;whiteSpace=wrap;html=1;" parent="1" vertex="1">
                    <mxGeometry x="160" y="520" width="120" height="40" as="geometry"/>
                </mxCell>
                <mxCell id="1qiyT1-d7huw2gus4alH-34" style="edgeStyle=orthogonalEdgeStyle;rounded=0;orthogonalLoop=1;jettySize=auto;html=1;" parent="1" source="1qiyT1-d7huw2gus4alH-5" target="1qiyT1-d7huw2gus4alH-22" edge="1">
                    <mxGeometry relative="1" as="geometry"/>
                </mxCell>
                <mxCell id="1qiyT1-d7huw2gus4alH-5" value="Root Reducer" style="rounded=1;whiteSpace=wrap;html=1;" parent="1" vertex="1">
                    <mxGeometry x="160" y="680" width="120" height="40" as="geometry"/>
                </mxCell>
                <mxCell id="1qiyT1-d7huw2gus4alH-40" value="" style="edgeStyle=orthogonalEdgeStyle;rounded=0;orthogonalLoop=1;jettySize=auto;html=1;fontColor=#00CC00;strokeColor=#000000;" parent="1" source="1qiyT1-d7huw2gus4alH-6" target="1qiyT1-d7huw2gus4alH-23" edge="1">
                    <mxGeometry relative="1" as="geometry"/>
                </mxCell>
                <mxCell id="1qiyT1-d7huw2gus4alH-6" value="Dexie CRUD" style="rounded=1;whiteSpace=wrap;html=1;" parent="1" vertex="1">
                    <mxGeometry x="400" y="680" width="120" height="40" as="geometry"/>
                </mxCell>
                <mxCell id="1qiyT1-d7huw2gus4alH-39" style="edgeStyle=orthogonalEdgeStyle;rounded=0;orthogonalLoop=1;jettySize=auto;html=1;entryX=0.5;entryY=0;entryDx=0;entryDy=0;fontColor=#00CC00;strokeColor=#000000;" parent="1" source="1qiyT1-d7huw2gus4alH-7" target="1qiyT1-d7huw2gus4alH-6" edge="1">
                    <mxGeometry relative="1" as="geometry"/>
                </mxCell>
                <mxCell id="1qiyT1-d7huw2gus4alH-41" style="edgeStyle=orthogonalEdgeStyle;rounded=0;orthogonalLoop=1;jettySize=auto;html=1;entryX=1;entryY=0.5;entryDx=0;entryDy=0;fontColor=#00CC00;strokeColor=#000000;" parent="1" source="1qiyT1-d7huw2gus4alH-7" target="1qiyT1-d7huw2gus4alH-4" edge="1">
                    <mxGeometry relative="1" as="geometry">
                        <Array as="points">
                            <mxPoint x="460" y="540"/>
                        </Array>
                    </mxGeometry>
                </mxCell>
                <mxCell id="1qiyT1-d7huw2gus4alH-46" style="edgeStyle=orthogonalEdgeStyle;rounded=0;orthogonalLoop=1;jettySize=auto;html=1;exitX=0.75;exitY=0;exitDx=0;exitDy=0;entryX=0.07;entryY=0.4;entryDx=0;entryDy=0;entryPerimeter=0;fontColor=#000000;strokeColor=#000000;" parent="1" source="1qiyT1-d7huw2gus4alH-7" target="1qiyT1-d7huw2gus4alH-43" edge="1">
                    <mxGeometry relative="1" as="geometry">
                        <Array as="points">
                            <mxPoint x="490" y="478"/>
                        </Array>
                    </mxGeometry>
                </mxCell>
                <mxCell id="1qiyT1-d7huw2gus4alH-7" value="Saga" style="rounded=1;whiteSpace=wrap;html=1;" parent="1" vertex="1">
                    <mxGeometry x="400" y="590" width="120" height="40" as="geometry"/>
                </mxCell>
                <mxCell id="1qiyT1-d7huw2gus4alH-52" style="edgeStyle=orthogonalEdgeStyle;rounded=0;orthogonalLoop=1;jettySize=auto;html=1;entryX=0.25;entryY=1;entryDx=0;entryDy=0;fontColor=#000000;strokeColor=#000000;" parent="1" source="1qiyT1-d7huw2gus4alH-8" target="1qiyT1-d7huw2gus4alH-3" edge="1">
                    <mxGeometry relative="1" as="geometry"/>
                </mxCell>
                <mxCell id="1qiyT1-d7huw2gus4alH-8" value="Selector" style="rounded=1;whiteSpace=wrap;html=1;" parent="1" vertex="1">
                    <mxGeometry x="-80" y="600" width="120" height="40" as="geometry"/>
                </mxCell>
                <mxCell id="1qiyT1-d7huw2gus4alH-53" style="edgeStyle=orthogonalEdgeStyle;rounded=0;orthogonalLoop=1;jettySize=auto;html=1;entryX=0;entryY=0.5;entryDx=0;entryDy=0;fontColor=#000000;strokeColor=#000000;" parent="1" source="1qiyT1-d7huw2gus4alH-9" target="1qiyT1-d7huw2gus4alH-3" edge="1">
                    <mxGeometry relative="1" as="geometry">
                        <Array as="points">
                            <mxPoint x="-180" y="380"/>
                        </Array>
                    </mxGeometry>
                </mxCell>
                <mxCell id="1qiyT1-d7huw2gus4alH-9" value="UseLiveQuery" style="rounded=1;whiteSpace=wrap;html=1;" parent="1" vertex="1">
                    <mxGeometry x="-240" y="600" width="120" height="40" as="geometry"/>
                </mxCell>
                <mxCell id="1qiyT1-d7huw2gus4alH-57" style="edgeStyle=orthogonalEdgeStyle;rounded=0;orthogonalLoop=1;jettySize=auto;html=1;entryX=0.5;entryY=1;entryDx=0;entryDy=0;fontColor=#000000;strokeColor=#000000;" parent="1" source="1qiyT1-d7huw2gus4alH-10" target="1qiyT1-d7huw2gus4alH-8" edge="1">
                    <mxGeometry relative="1" as="geometry">
                        <Array as="points">
                            <mxPoint x="-100" y="920"/>
                            <mxPoint x="-100" y="730"/>
                            <mxPoint x="-20" y="730"/>
                        </Array>
                    </mxGeometry>
                </mxCell>
                <mxCell id="1qiyT1-d7huw2gus4alH-10" value="Redux State&lt;br&gt;(in-memory)" style="shape=cylinder3;whiteSpace=wrap;html=1;boundedLbl=1;backgroundOutline=1;size=15;" parent="1" vertex="1">
                    <mxGeometry x="160" y="880" width="120" height="80" as="geometry"/>
                </mxCell>
                <mxCell id="1qiyT1-d7huw2gus4alH-58" style="edgeStyle=orthogonalEdgeStyle;rounded=0;orthogonalLoop=1;jettySize=auto;html=1;fontColor=#000000;strokeColor=#000000;" parent="1" source="1qiyT1-d7huw2gus4alH-11" target="1qiyT1-d7huw2gus4alH-9" edge="1">
                    <mxGeometry relative="1" as="geometry">
                        <Array as="points">
                            <mxPoint x="460" y="990"/>
                            <mxPoint x="-180" y="990"/>
                        </Array>
                    </mxGeometry>
                </mxCell>
                <mxCell id="1qiyT1-d7huw2gus4alH-11" value="IndexedDB&lt;br&gt;(persisent)" style="shape=cylinder3;whiteSpace=wrap;html=1;boundedLbl=1;backgroundOutline=1;size=15;" parent="1" vertex="1">
                    <mxGeometry x="400" y="880" width="120" height="80" as="geometry"/>
                </mxCell>
                <mxCell id="1qiyT1-d7huw2gus4alH-13" value="" style="strokeWidth=2;html=1;shape=mxgraph.flowchart.annotation_2;align=left;labelPosition=right;pointerEvents=1;" parent="1" vertex="1">
                    <mxGeometry x="110" y="760" width="40" height="40" as="geometry"/>
                </mxCell>
                <mxCell id="1qiyT1-d7huw2gus4alH-14" value="&lt;div style=&quot;&quot;&gt;&lt;b style=&quot;background-color: initial;&quot;&gt;Dexie.js useLiveQuery&lt;/b&gt;&lt;span style=&quot;background-color: initial;&quot;&gt;&amp;nbsp;hook&lt;/span&gt;&lt;/div&gt;&lt;div style=&quot;&quot;&gt;&lt;span style=&quot;background-color: initial;&quot;&gt;is used for various queries like&lt;/span&gt;&lt;/div&gt;&lt;b&gt;&lt;div style=&quot;&quot;&gt;&lt;b style=&quot;background-color: initial;&quot;&gt;useGet, useGetBulk, useWhere&lt;/b&gt;&lt;/div&gt;&lt;/b&gt;&lt;div style=&quot;&quot;&gt;&lt;span style=&quot;background-color: initial;&quot;&gt;which dynamically update&lt;/span&gt;&lt;/div&gt;&lt;div style=&quot;&quot;&gt;&lt;span style=&quot;background-color: initial;&quot;&gt;based on state changes.&lt;/span&gt;&lt;/div&gt;" style="text;html=1;align=center;verticalAlign=middle;resizable=0;points=[];autosize=1;strokeColor=none;fillColor=none;" parent="1" vertex="1">
                    <mxGeometry x="-400" y="470" width="190" height="80" as="geometry"/>
                </mxCell>
                <mxCell id="1qiyT1-d7huw2gus4alH-17" value="&lt;div style=&quot;&quot;&gt;&lt;b style=&quot;background-color: initial;&quot;&gt;Selectors&lt;/b&gt;&lt;span style=&quot;background-color: initial;&quot;&gt;&amp;nbsp;query data&lt;/span&gt;&lt;/div&gt;&lt;div style=&quot;&quot;&gt;&lt;span style=&quot;background-color: initial;&quot;&gt;directly from the in-memory &lt;br&gt;redux state. They can have &lt;br&gt;additional logic to parse data&lt;br&gt;returned by &lt;b&gt;redux-orm &lt;/b&gt;selectors.&lt;/span&gt;&lt;/div&gt;" style="text;html=1;align=center;verticalAlign=middle;resizable=0;points=[];autosize=1;strokeColor=none;fillColor=none;" parent="1" vertex="1">
                    <mxGeometry x="-115" y="460" width="190" height="80" as="geometry"/>
                </mxCell>
                <mxCell id="1qiyT1-d7huw2gus4alH-18" value="&lt;div style=&quot;&quot;&gt;&lt;b&gt;Hooks &lt;/b&gt;(custom or &lt;br&gt;included in &lt;b&gt;web3-redux&lt;/b&gt;)&lt;br&gt;live inside React components, &lt;br&gt;and enable combining &lt;br&gt;selectors with dispatching actions.&lt;/div&gt;" style="text;html=1;align=center;verticalAlign=middle;resizable=0;points=[];autosize=1;strokeColor=none;fillColor=none;" parent="1" vertex="1">
                    <mxGeometry x="270" y="340" width="200" height="80" as="geometry"/>
                </mxCell>
                <mxCell id="1qiyT1-d7huw2gus4alH-19" value="&lt;div style=&quot;&quot;&gt;&lt;span style=&quot;background-color: initial;&quot;&gt;&lt;b&gt;redux-saga&lt;/b&gt;&amp;nbsp;is used to write &lt;br&gt;and fetch data asynchronously &lt;br&gt;from the network or indexedDB.&lt;br&gt;&lt;br&gt;This is where RPC calls are &lt;br&gt;made to fetch &lt;b&gt;blocks&lt;/b&gt;, &lt;br&gt;&lt;b&gt;transactions&lt;/b&gt;, &lt;b&gt;events&lt;/b&gt;, &lt;br&gt;and manage subscriptions.&lt;br&gt;&lt;br&gt;Sagas then dispatch new &lt;br&gt;actions to update the &lt;b&gt;state&lt;/b&gt;.&lt;/span&gt;&lt;/div&gt;" style="text;html=1;align=center;verticalAlign=middle;resizable=0;points=[];autosize=1;strokeColor=none;fillColor=none;" parent="1" vertex="1">
                    <mxGeometry x="580" y="540" width="180" height="160" as="geometry"/>
                </mxCell>
                <mxCell id="1qiyT1-d7huw2gus4alH-20" value="&lt;div style=&quot;&quot;&gt;&lt;b&gt;redux-orm &lt;/b&gt;is used to mutate&lt;br&gt;the redux state in a&amp;nbsp;&lt;br&gt;normalized way with each object&lt;br&gt;having unique ids.&lt;/div&gt;" style="text;html=1;align=center;verticalAlign=middle;resizable=0;points=[];autosize=1;strokeColor=none;fillColor=none;" parent="1" vertex="1">
                    <mxGeometry x="-80" y="750" width="190" height="60" as="geometry"/>
                </mxCell>
                <mxCell id="1qiyT1-d7huw2gus4alH-21" value="&lt;div style=&quot;&quot;&gt;&lt;b&gt;Dexie.js&amp;nbsp;&lt;/b&gt;is used to mutate&lt;br&gt;the IndexedDB state in a&amp;nbsp;&lt;br&gt;normalized way with each object&lt;br&gt;having unique ids.&lt;br&gt;&lt;b&gt;Dexie.js &lt;/b&gt;also supports&lt;br&gt;compound indices which enable&lt;br&gt;efficient querying.&lt;/div&gt;" style="text;html=1;align=center;verticalAlign=middle;resizable=0;points=[];autosize=1;strokeColor=none;fillColor=none;" parent="1" vertex="1">
                    <mxGeometry x="570" y="740" width="190" height="100" as="geometry"/>
                </mxCell>
                <mxCell id="1qiyT1-d7huw2gus4alH-31" value="Mutate State" style="edgeStyle=orthogonalEdgeStyle;rounded=0;orthogonalLoop=1;jettySize=auto;html=1;exitX=0.5;exitY=1;exitDx=0;exitDy=0;entryX=0.5;entryY=0;entryDx=0;entryDy=0;entryPerimeter=0;" parent="1" source="1qiyT1-d7huw2gus4alH-22" target="1qiyT1-d7huw2gus4alH-10" edge="1">
                    <mxGeometry relative="1" as="geometry"/>
                </mxCell>
                <mxCell id="1qiyT1-d7huw2gus4alH-22" value="Redux ORM" style="rounded=1;whiteSpace=wrap;html=1;" parent="1" vertex="1">
                    <mxGeometry x="160" y="760" width="120" height="40" as="geometry"/>
                </mxCell>
                <mxCell id="1qiyT1-d7huw2gus4alH-32" value="Mutate State" style="edgeStyle=orthogonalEdgeStyle;rounded=0;orthogonalLoop=1;jettySize=auto;html=1;" parent="1" source="1qiyT1-d7huw2gus4alH-23" target="1qiyT1-d7huw2gus4alH-11" edge="1">
                    <mxGeometry relative="1" as="geometry"/>
                </mxCell>
                <mxCell id="1qiyT1-d7huw2gus4alH-23" value="Dexie.js" style="rounded=1;whiteSpace=wrap;html=1;" parent="1" vertex="1">
                    <mxGeometry x="400" y="760" width="120" height="40" as="geometry"/>
                </mxCell>
                <mxCell id="1qiyT1-d7huw2gus4alH-28" value="" style="strokeWidth=2;html=1;shape=mxgraph.flowchart.annotation_2;align=left;labelPosition=right;pointerEvents=1;direction=west;" parent="1" vertex="1">
                    <mxGeometry x="530" y="760" width="40" height="40" as="geometry"/>
                </mxCell>
                <mxCell id="1qiyT1-d7huw2gus4alH-29" value="&lt;div style=&quot;&quot;&gt;&lt;b&gt;Redux &lt;/b&gt;state is an in-memory &lt;br&gt;JSON object modified by actions &lt;br&gt;and reducers.&lt;br&gt;&lt;br&gt;We need this to store non-encodable &lt;br&gt;objects that are instantiated using&lt;br&gt;data from the persistent state.&lt;br&gt;&lt;br&gt;For example &lt;b&gt;Web3.eth.Contract&lt;/b&gt;&amp;nbsp;&lt;br&gt;objects used for contract calls&lt;br&gt;and event subscriptions are &lt;br&gt;instantiated using the stored&lt;br&gt;&lt;b&gt;address&lt;/b&gt; and &lt;b&gt;ABI&lt;/b&gt;.&lt;/div&gt;" style="text;html=1;align=center;verticalAlign=middle;resizable=0;points=[];autosize=1;strokeColor=none;fillColor=none;" parent="1" vertex="1">
                    <mxGeometry x="115" y="1050" width="210" height="190" as="geometry"/>
                </mxCell>
                <mxCell id="1qiyT1-d7huw2gus4alH-33" value="&lt;div style=&quot;&quot;&gt;&lt;b&gt;IndexedDB &lt;/b&gt;is the modern browser &lt;br&gt;database we use for persistent &lt;br&gt;storage and indexing.&lt;br&gt;&amp;nbsp;&lt;br&gt;&lt;b&gt;IndexedDB &lt;/b&gt;supports compound&amp;nbsp;&lt;br&gt;indices which enable efficient&lt;br&gt;querying of data.&lt;/div&gt;&lt;div style=&quot;&quot;&gt;&lt;br&gt;&lt;/div&gt;&lt;div style=&quot;&quot;&gt;For example, &lt;b&gt;ContractEvent&lt;/b&gt; &lt;br&gt;can be searched by specific time&lt;br&gt;ranges and specific addresses. &lt;br&gt;Pagination is also supported&amp;nbsp;&lt;span style=&quot;background-color: initial;&quot;&gt;with&lt;br&gt;limit and offset query parameters.&lt;/span&gt;&lt;/div&gt;" style="text;html=1;align=center;verticalAlign=middle;resizable=0;points=[];autosize=1;strokeColor=none;fillColor=none;" parent="1" vertex="1">
                    <mxGeometry x="365" y="1050" width="200" height="190" as="geometry"/>
                </mxCell>
                <mxCell id="1qiyT1-d7huw2gus4alH-36" value="No" style="edgeStyle=orthogonalEdgeStyle;rounded=0;orthogonalLoop=1;jettySize=auto;html=1;entryX=0.5;entryY=0;entryDx=0;entryDy=0;fontColor=#CC0000;strokeColor=#CC0000;" parent="1" source="1qiyT1-d7huw2gus4alH-35" target="1qiyT1-d7huw2gus4alH-5" edge="1">
                    <mxGeometry relative="1" as="geometry"/>
                </mxCell>
                <mxCell id="1qiyT1-d7huw2gus4alH-38" value="YES" style="edgeStyle=orthogonalEdgeStyle;rounded=0;orthogonalLoop=1;jettySize=auto;html=1;fontColor=#00CC00;strokeColor=#00CC00;" parent="1" source="1qiyT1-d7huw2gus4alH-35" target="1qiyT1-d7huw2gus4alH-7" edge="1">
                    <mxGeometry relative="1" as="geometry"/>
                </mxCell>
                <mxCell id="1qiyT1-d7huw2gus4alH-35" value="Is Async Action?" style="rhombus;whiteSpace=wrap;html=1;" parent="1" vertex="1">
                    <mxGeometry x="160" y="580" width="120" height="60" as="geometry"/>
                </mxCell>
                <mxCell id="1qiyT1-d7huw2gus4alH-42" value="" style="strokeWidth=2;html=1;shape=mxgraph.flowchart.annotation_2;align=left;labelPosition=right;pointerEvents=1;direction=west;" parent="1" vertex="1">
                    <mxGeometry x="530" y="590" width="40" height="40" as="geometry"/>
                </mxCell>
                <mxCell id="1qiyT1-d7huw2gus4alH-43" value="&lt;font color=&quot;#000000&quot;&gt;Network&lt;/font&gt;" style="ellipse;shape=cloud;whiteSpace=wrap;html=1;fontColor=#00CC00;" parent="1" vertex="1">
                    <mxGeometry x="600" y="450" width="120" height="70" as="geometry"/>
                </mxCell>
                <mxCell id="1qiyT1-d7huw2gus4alH-48" style="edgeStyle=orthogonalEdgeStyle;rounded=0;orthogonalLoop=1;jettySize=auto;html=1;entryX=0.5;entryY=0;entryDx=0;entryDy=0;fontColor=#000000;strokeColor=#000000;" parent="1" source="1qiyT1-d7huw2gus4alH-47" target="1qiyT1-d7huw2gus4alH-4" edge="1">
                    <mxGeometry relative="1" as="geometry"/>
                </mxCell>
                <mxCell id="1qiyT1-d7huw2gus4alH-47" value="Redux Dispatch" style="rounded=1;whiteSpace=wrap;html=1;" parent="1" vertex="1">
                    <mxGeometry x="160" y="440" width="120" height="40" as="geometry"/>
                </mxCell>
                <mxCell id="1qiyT1-d7huw2gus4alH-51" value="" style="strokeWidth=2;html=1;shape=mxgraph.flowchart.annotation_2;align=left;labelPosition=right;pointerEvents=1;direction=west;" parent="1" vertex="1">
                    <mxGeometry x="230" y="360" width="40" height="40" as="geometry"/>
                </mxCell>
                <mxCell id="1qiyT1-d7huw2gus4alH-54" value="" style="strokeWidth=2;html=1;shape=mxgraph.flowchart.annotation_2;align=left;labelPosition=right;pointerEvents=1;direction=south;" parent="1" vertex="1">
                    <mxGeometry x="-80" y="550" width="120" height="40" as="geometry"/>
                </mxCell>
                <mxCell id="1qiyT1-d7huw2gus4alH-56" style="edgeStyle=orthogonalEdgeStyle;rounded=0;orthogonalLoop=1;jettySize=auto;html=1;exitX=0;exitY=0.5;exitDx=0;exitDy=0;exitPerimeter=0;fontColor=#000000;strokeColor=#000000;" parent="1" source="1qiyT1-d7huw2gus4alH-55" edge="1">
                    <mxGeometry relative="1" as="geometry">
                        <mxPoint x="-310" y="559.9999999999998" as="targetPoint"/>
                    </mxGeometry>
                </mxCell>
                <mxCell id="1qiyT1-d7huw2gus4alH-55" value="" style="strokeWidth=2;html=1;shape=mxgraph.flowchart.annotation_2;align=left;labelPosition=right;pointerEvents=1;" parent="1" vertex="1">
                    <mxGeometry x="-290" y="600" width="40" height="40" as="geometry"/>
                </mxCell>
                <mxCell id="1qiyT1-d7huw2gus4alH-59" value="" style="strokeWidth=2;html=1;shape=mxgraph.flowchart.annotation_2;align=left;labelPosition=right;pointerEvents=1;direction=north;" parent="1" vertex="1">
                    <mxGeometry x="160" y="1000" width="120" height="40" as="geometry"/>
                </mxCell>
                <mxCell id="1qiyT1-d7huw2gus4alH-60" value="" style="strokeWidth=2;html=1;shape=mxgraph.flowchart.annotation_2;align=left;labelPosition=right;pointerEvents=1;direction=north;" parent="1" vertex="1">
                    <mxGeometry x="400" y="1000" width="120" height="40" as="geometry"/>
                </mxCell>
                <mxCell id="1qiyT1-d7huw2gus4alH-63" value="&lt;b&gt;&lt;font color=&quot;#0000ff&quot;&gt;Hydrate&lt;/font&gt;&lt;/b&gt;" style="html=1;shadow=0;dashed=0;align=center;verticalAlign=middle;shape=mxgraph.arrows2.arrow;dy=0.6;dx=40;flipH=1;notch=0;fontColor=#000000;strokeColor=#0000FF;" parent="1" vertex="1">
                    <mxGeometry x="290" y="895" width="90" height="50" as="geometry"/>
                </mxCell>
            </root>
        </mxGraphModel>
    </diagram>
</mxfile>
